<?xml version="1.0" encoding="utf-8" ?><svg xmlns="http://www.w3.org/2000/svg" xmlns:xlink="http://www.w3.org/1999/xlink" width="5323" height="1155" viewBox="0 0 5323 1155"><path fill="#9D9D9C" d="M2607.44 310.986C2690.37 302.842 2764.31 363.235 2772.87 446.127C2781.44 529.02 2721.43 603.259 2638.58 612.251C2555.13 621.308 2480.24 560.763 2471.61 477.269C2462.98 393.775 2523.9 319.19 2607.44 310.986ZM2634.52 583.155C2701.54 576.332 2750.31 516.428 2743.41 449.415C2736.5 382.401 2676.53 333.702 2609.53 340.691C2542.64 347.668 2494.05 407.505 2500.94 474.4C2507.84 541.296 2567.61 589.965 2634.52 583.155Z"/><path fill="#9D9D9C" d="M4535.49 318L4577.97 317.964C4634.21 318.011 4695.2 316.054 4737.69 358.956C4789.97 411.746 4791.47 515.507 4738.65 568.017C4738.26 568.909 4738.43 568.761 4737.76 569.431C4700.33 606.777 4652.53 605.064 4604.38 605.061L4535.49 605L4535.49 318ZM4563.51 577.49C4615.35 577.609 4678.79 584.598 4717.17 546.5C4759.32 503.655 4756.87 421.992 4714.73 380.008C4677.96 343.38 4612.29 346.073 4563.51 346.51L4563.51 577.49Z"/><path fill="#9D9D9C" d="M2103.88 317.759C2105.61 317.783 2107.33 317.747 2108.99 318.309C2111.95 319.308 2217.36 534.181 2226.5 552.491L2304.1 395.109C2308.69 385.783 2339.56 320.39 2343.89 318.174L2345.59 319.167C2349.37 325.348 2355.63 380.251 2357.25 391.674L2376.44 526.639C2379.92 551.313 2383.38 580.965 2387.8 605L2359.09 604.955C2353.32 552.185 2343.87 494.855 2336.96 441.745C2334.82 431.14 2332.9 411.971 2331.4 400.639L2256.26 552.721C2253.11 559.065 2232.8 600.939 2230.17 603.995C2227.05 605.472 2226.43 605.262 2222.97 604.683C2220 602.313 2128.51 416.483 2120.22 399.393C2110.39 467.498 2102.1 536.703 2092.72 605L2063.87 604.952L2091.04 409.746C2095.17 379.853 2098.89 347.295 2103.88 317.759Z"/><path fill="#9D9D9C" d="M4982.25 317.983C4984.66 317.933 4986.64 318.134 4989.01 318.337C4994.57 325.111 5017.96 379.145 5022.88 389.697L5123.24 605L5091.75 605C5077.01 576.336 5060.88 540.4 5047.08 511L4988.5 511L4923.34 511C4912.79 536.938 4891.39 579.027 4878.98 605L4846.24 605C4859.86 578.566 4873.92 546.744 4886.89 519.308L4982.25 317.983ZM4937.22 482.49L4987.5 482.49L5034.13 482.49C5029.59 472.719 4988.57 382.81 4985.47 379.727L4953.38 447.896C4948.6 457.987 4941.23 472.459 4937.22 482.49Z"/><path fill="#9D9D9C" d="M2870 317.939C2872.13 317.947 2874.31 318.147 2876.44 318.3C2888.71 331.044 2902.02 347.271 2913.72 360.806L2975.21 431.731L3033.38 498.751C3043.76 510.716 3057.04 525.176 3066.49 537.528L3066.49 318L3095.51 318L3095.51 603.666L3094.95 604.565C3090.98 605.632 3089.14 605.812 3086.02 602.268C3076.65 591.62 3067.39 580.862 3058.07 570.165L2998.88 502.226L2935.88 429.862C2924.95 417.329 2909.93 401.067 2900 388.103L2900 605L2870 605L2870 317.939Z"/><path fill="#9D9D9C" d="M3414.49 318L3579 318L3579 346.51L3443.51 346.51L3443.51 436L3578 436L3578 464.51C3564.81 464.509 3446.71 463.793 3443.75 465.531L3443.51 468.75L3443.51 576.49L3578 576.49L3578 605L3414.49 605L3414.49 318Z"/><path fill="#9D9D9C" d="M3652.31 318L3685.77 318C3709.31 354.807 3731.9 392.826 3755.36 429.834L3824.93 318L3858.65 318C3849.02 332.346 3838.82 349.755 3829.54 364.668L3772.18 456.866C3781.02 472.53 3792.86 490.515 3802.57 506.16L3863.75 605L3849.5 605L3830.14 605C3824.14 594.016 3813.54 578.117 3806.73 567.151L3755.37 484.118C3730.29 522.337 3704.42 565.95 3680.07 605L3646.37 605C3657.1 588.792 3668.38 569.695 3678.81 552.928L3738.35 456.995C3710.88 410.825 3680.41 364.081 3652.31 318Z"/><path fill="#9D9D9C" d="M3176.49 318L3333.51 318L3333.51 346.51L3269.51 346.51L3269.51 541.5L3269.51 605L3240.49 605L3240.49 346.51L3176.49 346.51L3176.49 318Z"/><path fill="#9D9D9C" d="M4297 318L4454 318L4454 346.51L4390 346.51L4390 540.5L4390 605L4361 605L4361 346.51L4297 346.51L4297 318Z"/><path fill="#9D9D9C" d="M4101.49 318L4130.51 318L4130.51 576.49L4241 576.49L4241 605L4101.49 605L4101.49 318Z"/><path fill="#9D9D9C" d="M3332.49 698.49C3357.49 698.327 3404.92 691.716 3408.33 727.321C3409.13 735.714 3406.54 744.079 3401.13 750.544C3391.85 761.564 3379.39 762.367 3366.35 763.337C3379.9 779.436 3396.51 801.583 3409.31 818.51L3394.37 818.51C3381.67 802.257 3368.82 785.277 3355.82 769.233C3352.96 765.702 3350.63 763.811 3346.31 763.62L3345.23 764.661C3343.69 771.492 3344.46 808.815 3344.51 818.51L3332.49 818.51L3332.49 698.49ZM3389.25 745.491C3396.41 736.7 3398.88 723.625 3388.63 715.66C3379.08 708.237 3356.68 710.383 3344.51 710.51L3344.51 751C3357.74 751.166 3378.81 753.259 3389.25 745.491Z"/><path fill="#9D9D9C" d="M2870.49 698.49C2895.49 698.327 2942.92 691.716 2946.33 727.321C2947.13 735.714 2944.54 744.079 2939.13 750.544C2929.85 761.564 2917.39 762.367 2904.35 763.337C2917.9 779.436 2934.51 801.583 2947.31 818.51L2932.37 818.51C2919.67 802.257 2906.82 785.277 2893.82 769.233C2890.96 765.702 2888.63 763.811 2884.31 763.62L2883.23 764.661C2881.69 771.492 2882.46 808.815 2882.51 818.51L2870.49 818.51L2870.49 698.49ZM2882.51 751C2895.74 751.166 2916.81 753.259 2927.25 745.491C2934.41 736.7 2936.88 723.625 2926.63 715.66C2917.08 708.237 2894.68 710.383 2882.51 710.51L2882.51 751Z"/><path fill="#9D9D9C" d="M3667.18 697.8C3671.53 699.718 3683.04 725.53 3685.72 730.949L3718.25 796.983L3769.05 695.735C3772.33 731.798 3780.86 781.508 3786.07 818.507L3774.22 818.451L3764.97 748.745L3762.64 732.65C3749.5 759.157 3732.25 796.117 3717.98 821.208C3702.72 792.109 3688.6 761.431 3673.61 731.965C3671.57 757.152 3666.13 792.899 3662.46 818.51L3650.64 818.51C3652.9 794.166 3657.84 767.22 3660.49 742.625C3661.28 735.241 3665.39 702.985 3667.18 697.8Z"/><path fill="#9D9D9C" d="M3497.59 697.498C3501.89 699.693 3513.81 727.634 3516.89 734.181L3556.34 818.51L3543.14 818.51C3537.57 805.814 3530.77 792.133 3524.81 779.51L3499.5 779.51L3471.73 779.611L3453.31 818.51L3440 818.51C3459.69 778.696 3477.93 737.462 3497.59 697.498ZM3477.68 767.49L3499.5 767.49L3519.13 767.49C3514.59 757.694 3503.22 731.666 3498.4 723.694C3491.46 738.08 3484.14 752.893 3477.68 767.49Z"/><path fill="#9D9D9C" d="M4514.59 697.498C4518.89 699.693 4530.81 727.634 4533.89 734.181L4573.34 818.51L4560.14 818.51C4554.57 805.814 4547.77 792.133 4541.81 779.51L4516.5 779.51L4488.73 779.611L4470.31 818.51L4457 818.51C4476.69 778.696 4494.93 737.462 4514.59 697.498ZM4494.68 767.49L4516.5 767.49L4536.13 767.49C4531.59 757.694 4520.22 731.666 4515.4 723.694C4508.46 738.08 4501.14 752.893 4494.68 767.49Z"/><path fill="#9D9D9C" d="M4070.3 697.761C4074.52 700.023 4086.9 728.877 4090.04 735.557L4128.87 818.51L4115.58 818.51C4109.64 805.434 4103.54 792.433 4097.28 779.51L4072.5 779.51L4044.03 779.51C4040.51 788.937 4030.5 808.666 4025.84 818.51L4012.64 818.51C4026.15 788.082 4041.74 758.033 4055.57 727.696C4059.78 718.461 4065.19 706.219 4070.3 697.761ZM4050.22 767.49L4072.5 767.49L4091.45 767.49C4088.69 761.16 4073.92 727.198 4070.51 724.471C4063.97 738.07 4056.07 753.668 4050.22 767.49Z"/><path fill="#9D9D9C" d="M4369.75 695.496C4393.16 694.777 4411.88 701.643 4426.52 720.303C4423.36 722.694 4420.18 725.269 4417.06 727.729C4382.55 683.723 4309.15 714.363 4323.1 771.514C4326.31 784.556 4334.58 795.781 4346.09 802.699C4359.83 810.977 4375.55 811.604 4390.76 807.715C4402.84 804.037 4408.56 799.102 4417.12 790.562L4426.7 797.812C4402.78 823.881 4361.43 830.717 4332.78 808.631C4319.66 798.338 4311.25 783.184 4309.46 766.603C4304.79 726.958 4331.26 699.256 4369.75 695.496Z"/><path fill="#9D9D9C" d="M3827.23 698.492L3896.51 698.49L3896.51 710.51L3839 710.51L3839 748L3895.95 748L3896 760C3878.28 759.972 3856.36 759.322 3839 760.25L3839 806.49L3896 806.49L3896.01 818.51L3827 818.51C3827.02 780.783 3825.84 735.724 3827.23 698.492Z"/><path fill="#9D9D9C" d="M2573.23 698.492L2642.51 698.49L2642.51 710.51L2585 710.51L2585 748L2641.95 748L2642 760C2624.28 759.972 2602.36 759.322 2585 760.25L2585 806.49L2642 806.49L2642.01 818.51L2573 818.51C2573.02 780.783 2571.84 735.724 2573.23 698.492Z"/><path fill="#9D9D9C" d="M2988.49 698.49L3000.51 698.49L3000.42 753.558C3000.37 776.072 2995.35 810.069 3029.19 810.048C3060.67 810.028 3056.69 773.259 3056.64 751.279L3056.49 698.49L3068.51 698.49L3068.51 710.5C3068.4 736.699 3070.48 766.571 3066.61 792.343C3062.07 829.891 2997.76 829.656 2991.16 797.403C2985.8 771.259 2988.44 725.322 2988.49 698.49Z"/><path fill="#9D9D9C" d="M3204.49 698.49L3216.51 698.49L3216.42 753.558C3216.37 776.072 3211.35 810.069 3245.19 810.048C3276.67 810.028 3272.69 773.259 3272.64 751.279L3272.49 698.49L3284.51 698.49L3284.51 710.5C3284.4 736.699 3286.48 766.571 3282.61 792.343C3278.07 829.891 3213.76 829.656 3207.16 797.403C3201.8 771.259 3204.44 725.322 3204.49 698.49Z"/><path fill="#9D9D9C" d="M4630.01 695.49C4648.05 694.745 4655.36 701.956 4666.06 715.01L4656.21 722.595C4654.68 720.585 4653.05 718.657 4651.32 716.818C4639.93 704.509 4619.67 703.817 4616.37 723.292C4617.92 738.316 4644.09 752.995 4653.45 761.908C4680.7 787.849 4666.36 821.929 4628.1 821.51C4610.54 816.543 4606.55 811.499 4596.83 796.234L4607.28 789.976C4613.03 800.161 4625.33 814.855 4638.23 809.263C4690.32 786.687 4612.29 755.424 4606.04 732.601C4600.18 711.193 4612.35 699.668 4630.01 695.49Z"/><path fill="#9D9D9C" d="M2701.01 695.49C2719.05 694.745 2726.36 701.956 2737.06 715.01L2727.21 722.595C2725.68 720.585 2724.05 718.657 2722.32 716.818C2710.93 704.509 2690.67 703.817 2687.37 723.292C2688.92 738.316 2715.09 752.995 2724.45 761.908C2751.7 787.849 2737.36 821.929 2699.1 821.51C2681.54 816.543 2677.55 811.499 2667.83 796.234L2678.28 789.976C2684.03 800.161 2696.33 814.855 2709.23 809.263C2761.32 786.687 2683.29 755.424 2677.04 732.601C2671.18 711.193 2683.35 699.668 2701.01 695.49Z"/><path fill="#9D9D9C" d="M3922.23 698.492L3988 698.49L3988.01 710.51L3961 710.51L3961 792.5L3961 818.507L3949 818.507L3949 710.51L3922 710.51C3921.97 706.564 3922.13 702.452 3922.23 698.492Z"/><path fill="#9D9D9C" d="M3104.23 698.492L3170 698.49L3170.01 710.51L3143 710.51L3143 792.5L3143 818.507L3131 818.507L3131 710.51L3104 710.51C3103.97 706.564 3104.13 702.452 3104.23 698.492Z"/><path fill="#9D9D9C" d="M2769.23 698.492L2835 698.49L2835.01 710.51L2808 710.51L2808 792.5L2808 818.507L2796 818.507L2796 710.51L2769 710.51C2768.97 706.564 2769.13 702.452 2769.23 698.492Z"/><path fill="#9D9D9C" d="M4164.23 698.492L4176 698.496L4176 806.49L4223 806.49C4223.03 810.436 4222.87 814.548 4222.77 818.508L4164 818.51C4164.02 780.783 4162.84 735.724 4164.23 698.492Z"/><path fill="#9D9D9C" d="M5231.5 561.669C5244.9 560.997 5256.35 571.234 5257.17 584.626C5257.99 598.019 5247.89 609.581 5234.5 610.555C5225.71 611.195 5217.25 607.061 5212.36 599.729C5207.46 592.398 5206.88 583.001 5210.84 575.125C5214.81 567.249 5222.69 562.11 5231.5 561.669Z"/><path fill="#9D9D9C" d="M4257.49 698.49L4269.51 698.49L4269.51 818.51L4257.49 818.51L4257.49 698.49Z"/><path fill="#9D9D9C" d="M4076.51 664.49L4094.18 664.49C4086.9 671.592 4079.34 679.861 4072.27 687.273L4070.79 688.775C4067.54 690.082 4062.8 689.603 4059.14 689.51L4076.51 664.49Z"/><path fill="#368784" d="M572.163 0L583.837 0C590.269 2.40243 602.143 0.735296 609.264 1.80956C617.731 3.08681 626.181 4.90844 634.594 6.57045C680.355 15.6105 721.355 41.8386 750.502 78.0239C763.354 93.9787 774.583 111.151 783.94 129.414C827.253 214.835 868.585 301.243 910.79 387.213C912.883 391.477 914.938 395.947 917.163 400.118C929.564 380.248 943.58 363.127 954.394 342.333C978.907 295.197 1001.57 246.481 1025.84 199.307C1047.46 157.276 1069.93 108.268 1101.81 73.7301C1131.05 41.4317 1169.55 18.9565 1212.05 9.3798C1271.72 -4.41151 1339.42 3.09465 1392 36.0435C1440.79 66.6144 1462.32 105.451 1487.42 154.543L1520.77 219.852L1630.71 436.974C1676.34 527.348 1721.51 617.95 1766.23 708.777L1803.65 784.77C1819.18 816.436 1832.8 841.003 1840.8 875.839C1854.5 934.32 1844.33 995.852 1812.54 1046.81C1775.07 1106.27 1711.7 1143.65 1643.31 1152.74C1639.2 1153.29 1631.1 1153.94 1627.41 1155L1602.16 1155C1599.55 1153.8 1583.34 1152.93 1578.62 1151.9C1569.55 1149.92 1561.28 1147.9 1552.32 1145.11C1513.94 1132.96 1479.56 1110.64 1452.86 1080.51C1419.74 1043.75 1385.66 973.319 1361.89 927.491L1270.85 751.243C1258.08 772.266 1244.19 798.909 1232.36 820.675C1206.55 868.128 1181.19 915.825 1156.29 963.761C1145.14 985.4 1134.41 1008.01 1123.55 1029.04C1089.84 1094.29 1031.74 1140.68 958.566 1152.22C951.652 1153.31 938.844 1152.9 932.837 1155L908.163 1155C904.758 1153.42 886.42 1152.86 880.952 1151.86C870.385 1149.92 860.671 1147.98 850.269 1144.89C811.453 1133.54 776.728 1111.25 750.249 1080.68C720.559 1046.68 711.236 1020.92 692.623 981.458C683.058 961.343 673.276 941.331 663.278 921.426C634.416 863.533 604.515 806.164 573.587 749.348C541.47 812.012 510.73 875.141 477.157 937.1C428.151 1027.54 379.593 1123.27 268.5 1144.66C209.032 1155.73 147.602 1142.71 97.7418 1108.46C54.1175 1078.54 22.4605 1034.18 8.3546 983.194C4.05929 967.559 2.9118 954.943 0 939.414L0 902.586C1.00264 898.987 1.43661 893.281 2.05424 889.382C12.3183 824.592 47.3501 764.777 76.2507 706.456L181.889 494.232L315.667 226.965C332.112 194.391 348.856 161.389 365.025 128.745C399.237 58.2948 461.82 11.3312 540.098 2.56458C547.51 1.73444 566.141 2.1707 572.163 0ZM1612.2 1035.42C1643.17 1036.13 1673.14 1024.41 1695.43 1002.89C1716.13 982.955 1727.91 955.519 1728.12 926.784C1728.21 910.744 1725.18 894.84 1719.18 879.961C1712.13 862.405 1696.87 834.086 1688.11 816.578L1626.01 692.924L1536.73 514.984C1523.26 488.167 1509.49 460.117 1495.74 433.577C1489.47 421.472 1464.02 377.988 1454.42 368.649L1335.26 606L1458.19 852.863L1489.48 915.659C1511.55 960.515 1533.01 1012.59 1584 1029.9C1593.12 1032.97 1602.6 1034.82 1612.2 1035.42ZM508.028 611C496.095 587.141 386.57 365.692 383.513 363.471L193.193 742.364L144.969 841.074C136.9 857.751 122.609 884.061 118.081 901.381C100.338 969.258 175.151 1040.23 241.741 1030.3C294.795 1023.87 310.75 992.916 333.836 950.414C346.339 927.394 358.647 904.267 370.758 881.037C417.071 791.309 462.829 701.295 508.028 611ZM921.124 1030.49C954.718 1027.78 985.865 1011.85 1007.74 986.212C1036.66 952.151 1038.38 913.93 1021.28 874.005C998.152 819.99 971.382 767.417 944.778 714.988C940.794 707.136 926.85 676.207 922.408 670.682L851.363 811.214C839.253 835.672 818.261 875.438 812.678 900.385C808.856 917.503 809.673 935.332 815.046 952.028C828.763 993.401 876.405 1032.11 921.124 1030.49ZM854.201 541.5L789.127 415.242C785.293 407.808 766.155 369.339 763.006 365.504L640.382 610.753L699.856 726.043C709.352 744.427 721.598 769.889 731.675 787.151C772.006 706.44 815.3 622.504 854.201 541.5ZM573.837 477.231L641.338 342.922C652.904 319.682 674.333 280.91 679.679 257.559C691.491 205.968 667.606 148.777 617.859 127.115C604.005 120.724 585.136 113.78 569.757 116.362C538.043 117.957 510.564 139.545 489.977 162.096C465.987 188.375 453.58 223.079 468.204 257.368C479.966 284.949 492.911 311.895 505.865 338.959L572.354 476.771L573.837 477.231ZM1078.4 360.694L990.208 537.106C1000.38 562.047 1011.3 586.675 1022.95 610.956C1029.95 625.536 1109.39 779.989 1114.09 782.308L1202.1 605.705L1118.99 440.776L1091.68 386.664C1088.7 380.766 1081.66 365.822 1078.4 360.694ZM1262.76 127.395C1232.95 128.511 1209.57 138.403 1189.18 160.134C1162.35 188.734 1152.33 230.527 1167.35 267.306C1176.2 288.97 1186.55 310.387 1196.74 331.48C1215.62 370.223 1234.95 408.743 1254.73 447.031C1257.86 453.111 1264.86 470.064 1267.56 473.207L1269.05 473.654L1270.76 470.654C1301.02 409.15 1333.2 348.886 1361.98 286.584C1375.87 256.528 1382.17 229.094 1370.77 196.663C1362.1 171.735 1346.04 150.242 1321.94 138.426C1305.87 130.481 1280.47 125.104 1262.76 127.395Z"/></svg>